# xmcd
#
# Track frame offsets:
#	150
#	10658
#	21532
#	32420
#	46565
#	57173
#	74269
#	85775
#	97325
#	107492
#	118832
#	128531
#	143246
#	153497
#	167046
#	178067
#	187604
#	198639
#	210191
#	223940
#	239813
#	252130
#	264254
#	275572
#
# Disc length: 3837 seconds
#
# Revision: 1
# Processed by: cddbd v1.5.2PL0 Copyright (c) Steve Scherf et al.
# Submitted via: audiograbber 1.83.01
#
DISCID=500efb18
DTITLE=Various Artist - Northern Soul's Classiest Rarities Vol 6 (Ace)
DYEAR=1968
DGENRE=R&B
TTITLE0=Peggy Woods - Love Is Gonna Get You
TTITLE1=Tamala Lewis - You Won't Say Nothing
TTITLE2=The Fidels - I Only Cry Once a Day Now
TTITLE3=Johnnie Taylor - Friday Night
TTITLE4=Betty Everett - I Got to Tell Somebody
TTITLE5=The Magnificents - I Can Fly
TTITLE6=The Hyperions - Why You Wanna Treat Me The Way You Do
TTITLE7=Difosco - Sunshine Love
TTITLE8=Little Nicky Soul - I Wanted to Tell You
TTITLE9=Daniel A Stone - Young Boy Blues
TTITLE10=Jock Mitchell w the Fabulous Agents - Nomad Woman
TTITLE11=Noney Rickett - Sad Tomorrows
TTITLE12=The Kittens - Wait a Minute
TTITLE13=Maxine Brown - One in a Million
TTITLE14=Jackie Day - Naughty Boy
TTITLE15=Betty Turner and the Chevelles - The Winds Kept Laughing
TTITLE16=The Vows - Lost in a City
TTITLE17=J.J.Barnes - Poor Unfortunate Me
TTITLE18=Andre Scott - Cry in the Arms of Another Love
TTITLE19=Detroit Emeralds - Long Live the King
TTITLE20=Jean Carter - Love Hangover
TTITLE21=OC Tolbert - (Marriage is Only) A State of Mind
TTITLE22=The Lon-Genes - Dream Girl
TTITLE23=Carla Thomas - Little Boy
EXTD=
EXTT0=
EXTT1=
EXTT2=
EXTT3=
EXTT4=
EXTT5=
EXTT6=
EXTT7=
EXTT8=
EXTT9=
EXTT10=
EXTT11=
EXTT12=
EXTT13=
EXTT14=
EXTT15=
EXTT16=
EXTT17=
EXTT18=
EXTT19=
EXTT20=
EXTT21=
EXTT22=
EXTT23=
PLAYORDER=
